<svg xmlns="http://www.w3.org/2000/svg" xmlns:xlink="http://www.w3.org/1999/xlink" viewBox="0 0 250.6 357.49"><defs><style>.cls-1{fill:url(#linear-gradient);}.cls-2{fill:#f6c100;}.cls-3{isolation:isolate;}.cls-4{fill:url(#linear-gradient-2);}</style><linearGradient id="linear-gradient" x1="55.9" y1="109.36" x2="237.89" y2="109.36" gradientUnits="userSpaceOnUse"><stop offset="0" stop-color="#4d3b74"/><stop offset="1" stop-color="#8669ac"/></linearGradient><linearGradient id="linear-gradient-2" x1="-72.42" y1="274.29" x2="254.7" y2="274.29" xlink:href="#linear-gradient"/></defs><g id="Layer_2" data-name="Layer 2"><g id="Layer_1-2" data-name="Layer 1"><path class="cls-1" d="M237.89,118.35c0,.45,0,.89,0,1.34a121.72,121.72,0,0,1-1.8,19.63c-14.16,72.6-86.78,95.43-138.42,68.44-29.76-17.14-38.48-38.6-41.34-63.66-2.56-22.41,7.12-42.32,18.19-56.71,28-31.62,77.65-35.76,96.1,11.66a47.34,47.34,0,0,0-29-24c-14-4-32.87-1.58-45.48,11.55-27.56,24.55-14.48,79.94,28.47,89.5,36.55,8.14,74.48-14.62,78.48-62.38,5.69-68-60.79-98.62-115.68-105.7a105.29,105.29,0,0,1,40.32-8h.6C179,.28,221.53,36.69,234.11,85.68c2.39,9.3,3.69,21.82,3.77,31.89C237.89,117.83,237.89,118.09,237.89,118.35Z" transform="translate(-0.12)"/><path class="cls-2" d="M49.29,77.43c-33.23,49.9-15.47,122.92,47.9,149.83q-3.64-1.14-7.08-2.41C47.81,208.68,17.59,166,17.59,115.9a123.54,123.54,0,0,1,1-15.61.59.59,0,0,1,0-.13,120.9,120.9,0,0,1,3.76-18.11A160.12,160.12,0,0,1,32,58.56l0,0a114.07,114.07,0,0,1,37.46-41l1-.59c5.79.87,48.59,8.5,67.15,17.79C137.61,34.73,85.69,25.1,49.29,77.43Z" transform="translate(-0.12)"/><g class="cls-3"><path class="cls-2" d="M12.19,335.59c.18,1.37.32,2.79.43,4.26s.16,3,.16,4.53c0,.55,0,1.1,0,1.63s-.05,1.08-.09,1.66h3a.69.69,0,0,1,.58.2,1,1,0,0,1,.17.63v1c0,.57-.25.86-.75.86H1.31a17.13,17.13,0,0,1-.88-2.95,15.42,15.42,0,0,1-.31-3.06,10.07,10.07,0,0,1,.61-3.6A8.81,8.81,0,0,1,2.37,338a7.3,7.3,0,0,1,2.39-1.76,6.87,6.87,0,0,1,2.86-.61Zm-9-5.78a1.92,1.92,0,0,1,.5-1.33A1.62,1.62,0,0,1,5,327.92a1.65,1.65,0,0,1,1.24.56,1.89,1.89,0,0,1,.52,1.33,2,2,0,0,1-.52,1.4,1.65,1.65,0,0,1-1.24.56,1.62,1.62,0,0,1-1.23-.56A2,2,0,0,1,3.23,329.81Zm6,17.86c.1-.71.17-1.4.22-2.08s.08-1.34.08-2q0-1.39-.12-2.73c-.08-.88-.17-1.76-.27-2.62H7.41a3.58,3.58,0,0,0-1.27.27,3.41,3.41,0,0,0-1.3.89,5.33,5.33,0,0,0-1,1.66,6.93,6.93,0,0,0-.41,2.59,11.54,11.54,0,0,0,.17,2,8.69,8.69,0,0,0,.6,2ZM8.09,329.81a1.93,1.93,0,0,1,.51-1.33,1.64,1.64,0,0,1,2.47,0,2,2,0,0,1,.49,1.33,2.09,2.09,0,0,1-.49,1.4,1.64,1.64,0,0,1-2.47,0A2,2,0,0,1,8.09,329.81Z" transform="translate(-0.12)"/><path class="cls-2" d="M20.22,350.32H14.81a.94.94,0,0,1-.59-.16,2.48,2.48,0,0,1-.09-.7v-1a2.29,2.29,0,0,1,.09-.66,1.2,1.2,0,0,1,.59-.13h5.41Z" transform="translate(-0.12)"/><path class="cls-2" d="M24.4,350.32H19a1,1,0,0,1-.6-.16,2.48,2.48,0,0,1-.09-.7v-1a2.29,2.29,0,0,1,.09-.66,1.21,1.21,0,0,1,.6-.13h5.4Z" transform="translate(-0.12)"/><path class="cls-2" d="M23.09,350.32c-.3,0-.49-.08-.55-.23a1.46,1.46,0,0,1-.11-.6V348.4a1,1,0,0,1,.13-.53.59.59,0,0,1,.53-.2h4a1.3,1.3,0,0,0,1.21-.48,4,4,0,0,0,.28-1.81v-9.79h3.35v7.8a7.46,7.46,0,0,0,.46,2.8,2.24,2.24,0,0,0,1.69,1.41l.43,0,.46,0h1.44a.73.73,0,0,1,.61.2,1,1,0,0,1,.16.63v1c0,.57-.25.86-.77.86h-1a1.6,1.6,0,0,1-.46-.06,3.34,3.34,0,0,1-2-1.32,5.74,5.74,0,0,1-1-2.53,6.6,6.6,0,0,1-.36,1.59,3.45,3.45,0,0,1-.76,1.24,3.25,3.25,0,0,1-1.26.8,5.42,5.42,0,0,1-1.89.28Zm2.83,4.35a1.92,1.92,0,0,1,.51-1.35,1.66,1.66,0,0,1,2.45,0,1.92,1.92,0,0,1,.51,1.35,2,2,0,0,1-.51,1.38,1.66,1.66,0,0,1-2.45,0A2,2,0,0,1,25.92,354.67Zm4.84,0a1.9,1.9,0,0,1,.53-1.35,1.65,1.65,0,0,1,1.24-.54,1.63,1.63,0,0,1,1.22.54,1.92,1.92,0,0,1,.51,1.35,2,2,0,0,1-.51,1.38,1.63,1.63,0,0,1-1.22.54,1.65,1.65,0,0,1-1.24-.54A1.93,1.93,0,0,1,30.76,354.67Z" transform="translate(-0.12)"/><path class="cls-2" d="M35.78,350.32c-.28,0-.45-.08-.52-.23a1.46,1.46,0,0,1-.11-.6V348.4a1,1,0,0,1,.12-.53c.08-.14.25-.2.51-.2h3c0-.58,0-1.13-.06-1.66s0-1.08,0-1.63c0-1.55,0-3.06.16-4.53s.25-2.89.41-4.26h4.33a7.58,7.58,0,0,1,3,.59A7.46,7.46,0,0,1,49,337.91a8,8,0,0,1,1.7,2.74,10,10,0,0,1,.63,3.66,13.52,13.52,0,0,1-.1,1.68c-.07.56-.17,1.12-.29,1.68h3.23a.73.73,0,0,1,.61.2,1,1,0,0,1,.17.63v1c0,.57-.26.86-.78.86Zm11.47-2.65a9.25,9.25,0,0,0,.61-2,10.69,10.69,0,0,0,.2-2,6.92,6.92,0,0,0-.42-2.59,5.17,5.17,0,0,0-1-1.66,3.56,3.56,0,0,0-1.3-.89,3.49,3.49,0,0,0-1.26-.27h-1.7c-.12.86-.21,1.74-.28,2.62s-.11,1.8-.11,2.73a32,32,0,0,0,.27,4.08Z" transform="translate(-0.12)"/><path class="cls-2" d="M53.61,350.32c-.28,0-.45-.08-.52-.23a1.46,1.46,0,0,1-.11-.6V348.4a1,1,0,0,1,.12-.53c.08-.14.25-.2.51-.2h3.47a15.85,15.85,0,0,1-.36-3.36,10.33,10.33,0,0,1,.62-3.68,8.08,8.08,0,0,1,1.71-2.74,7.45,7.45,0,0,1,2.48-1.71,7.58,7.58,0,0,1,3-.59h4.3q.24,2.06.42,4.26t.18,4.53c0,.93,0,1.89-.07,2.87s-.14,2-.26,3.07ZM60,329.81a1.93,1.93,0,0,1,.51-1.33,1.63,1.63,0,0,1,2.46,0,1.9,1.9,0,0,1,.53,1.33,2,2,0,0,1-.53,1.4,1.63,1.63,0,0,1-2.46,0A2,2,0,0,1,60,329.81Zm5.8,17.86c.1-.71.17-1.4.21-2.08s.06-1.34.06-2c0-.93,0-1.84-.11-2.73s-.16-1.76-.28-2.62H64a3.49,3.49,0,0,0-1.26.27,3.34,3.34,0,0,0-1.28.89,5.33,5.33,0,0,0-1,1.66,6.92,6.92,0,0,0-.42,2.59,11.55,11.55,0,0,0,.18,2,8.69,8.69,0,0,0,.6,2Zm-.93-17.86a1.93,1.93,0,0,1,.51-1.33,1.61,1.61,0,0,1,1.22-.56,1.59,1.59,0,0,1,1.24.56,2,2,0,0,1,.5,1.33,2.05,2.05,0,0,1-.5,1.4,1.59,1.59,0,0,1-1.24.56,1.61,1.61,0,0,1-1.22-.56A2,2,0,0,1,64.87,329.81Z" transform="translate(-0.12)"/><path class="cls-2" d="M85.09,350.32a3.16,3.16,0,0,1-2.51-1.11,5.61,5.61,0,0,1-1.22-2.8v2.12a18.29,18.29,0,0,1-.39,4.05,8.78,8.78,0,0,1-1.09,2.79A4.35,4.35,0,0,1,76,357.49a5.87,5.87,0,0,1-1.92-.33,6.43,6.43,0,0,1-1.75-.9,6.38,6.38,0,0,0,.21-.86,3.27,3.27,0,0,0,.91.21,6.94,6.94,0,0,0,.85.05,4.68,4.68,0,0,0,1.57-.23,2.25,2.25,0,0,0,1.13-.89,5.06,5.06,0,0,0,.7-1.86,16.45,16.45,0,0,0,.24-3.12v-14h3.38v7.86a6.08,6.08,0,0,0,.66,3.1,2.36,2.36,0,0,0,2.24,1.12h1.43a.73.73,0,0,1,.61.2,1,1,0,0,1,.17.63v1c0,.57-.26.86-.78.86Z" transform="translate(-0.12)"/><path class="cls-2" d="M85.12,350.32c-.28,0-.45-.08-.52-.23a1.46,1.46,0,0,1-.11-.6V348.4a1,1,0,0,1,.12-.53c.08-.14.25-.2.51-.2h4.06v-23.5h3.38v26.15Z" transform="translate(-0.12)"/><path class="cls-2" d="M99.52,324.17h3.34v26.15H99.52Z" transform="translate(-0.12)"/><path class="cls-2" d="M123.65,338.54a8.34,8.34,0,0,0-.81,1.88,7.83,7.83,0,0,0-.3,2.24,7.08,7.08,0,0,0,.2,1.55,4.21,4.21,0,0,0,.8,1.65,4.6,4.6,0,0,0,1.75,1.29,7.37,7.37,0,0,0,3,.52h13.17V335.59h3.37v14.73h-17a10.43,10.43,0,0,1-3.72-.55,5.52,5.52,0,0,1-2.21-1.44,4.79,4.79,0,0,1-1.07-2,8.81,8.81,0,0,1-.29-2.2,8.31,8.31,0,0,1,.66-3.24,11,11,0,0,1,1.52-2.64Zm5.73-6a1.88,1.88,0,0,1,.51-1.32,1.59,1.59,0,0,1,1.23-.57,1.64,1.64,0,0,1,1.24.57,1.89,1.89,0,0,1,.52,1.32,2,2,0,0,1-.52,1.4,1.67,1.67,0,0,1-1.24.56,1.62,1.62,0,0,1-1.23-.56A2,2,0,0,1,129.38,332.53Zm4.87,0a1.88,1.88,0,0,1,.51-1.32,1.59,1.59,0,0,1,1.22-.57,1.56,1.56,0,0,1,1.24.57,1.92,1.92,0,0,1,.5,1.32,2.05,2.05,0,0,1-.5,1.4,1.58,1.58,0,0,1-1.24.56,1.61,1.61,0,0,1-1.22-.56A2,2,0,0,1,134.25,332.53Z" transform="translate(-0.12)"/><path class="cls-2" d="M151.87,350.32V324.17h3.35v23.5h2.63a.69.69,0,0,1,.58.2,1,1,0,0,1,.16.63v1c0,.57-.25.86-.74.86Z" transform="translate(-0.12)"/><path class="cls-2" d="M162.39,350.32H157a1,1,0,0,1-.6-.16,2.48,2.48,0,0,1-.09-.7v-1a2.29,2.29,0,0,1,.09-.66,1.21,1.21,0,0,1,.6-.13h5.41Z" transform="translate(-0.12)"/><path class="cls-2" d="M166.57,350.32h-5.41a.92.92,0,0,1-.59-.16,2.16,2.16,0,0,1-.09-.7v-1a2,2,0,0,1,.09-.66,1.15,1.15,0,0,1,.59-.13h5.41Z" transform="translate(-0.12)"/><path class="cls-2" d="M170.75,350.32h-5.41a.94.94,0,0,1-.59-.16,2.48,2.48,0,0,1-.09-.7v-1a2.29,2.29,0,0,1,.09-.66,1.2,1.2,0,0,1,.59-.13h5.41Z" transform="translate(-0.12)"/><path class="cls-2" d="M174.93,350.32h-5.41a.94.94,0,0,1-.59-.16,2.48,2.48,0,0,1-.09-.7v-1a2.29,2.29,0,0,1,.09-.66,1.2,1.2,0,0,1,.59-.13h5.41Z" transform="translate(-0.12)"/><path class="cls-2" d="M174,350.32c-.27,0-.45-.08-.52-.23a1.47,1.47,0,0,1-.1-.6V348.4a1,1,0,0,1,.12-.53c.08-.14.25-.2.5-.2h3.08c-.06-1.13-.09-2.23-.09-3.29,0-1.55.06-3.06.17-4.53s.24-2.89.4-4.26h4.57a6.93,6.93,0,0,1,2.88.61A7.2,7.2,0,0,1,187.4,338a8.63,8.63,0,0,1,1.64,2.75,10.07,10.07,0,0,1,.62,3.6,14.76,14.76,0,0,1-.33,3.06,19.09,19.09,0,0,1-.87,2.95Zm11.56-2.65a9.28,9.28,0,0,0,.62-2,10.68,10.68,0,0,0,.19-2,6.92,6.92,0,0,0-.42-2.59,5.17,5.17,0,0,0-1-1.66,3.56,3.56,0,0,0-1.3-.89,3.44,3.44,0,0,0-1.25-.27h-1.7c-.1.86-.19,1.74-.27,2.62s-.12,1.8-.12,2.73a32,32,0,0,0,.27,4.08Z" transform="translate(-0.12)"/><path class="cls-2" d="M209.22,349.91a3.94,3.94,0,0,1-1.09-1,4.83,4.83,0,0,1-.67-1.27,7.73,7.73,0,0,1-.33-1.21,5.23,5.23,0,0,1-.55,2,3.68,3.68,0,0,1-1,1.19,3.24,3.24,0,0,1-1.32.57,7.68,7.68,0,0,1-1.43.13H195v-2.65h7.38c.64,0,1-.17,1.21-.52a4,4,0,0,0,.25-1.67v-2.59a18.4,18.4,0,0,0-.16-2.56,5.9,5.9,0,0,0-.61-2,3.35,3.35,0,0,0-1.24-1.29,4,4,0,0,0-2-.47h-3.1v-2.45h3.82a7.27,7.27,0,0,1,3.16.61,5.21,5.21,0,0,1,2.06,1.69,6.85,6.85,0,0,1,1.11,2.56,14.63,14.63,0,0,1,.33,3.2c0,.91,0,1.7.09,2.39a5.4,5.4,0,0,0,.39,1.71,2.15,2.15,0,0,0,.89,1,3.18,3.18,0,0,0,1.59.35h1.49a.73.73,0,0,1,.61.2,1,1,0,0,1,.17.63v1c0,.57-.26.86-.78.86h-.78A3.09,3.09,0,0,1,209.22,349.91Z" transform="translate(-0.12)"/><path class="cls-2" d="M229.68,347.67a.73.73,0,0,1,.61.2,1,1,0,0,1,.17.63v1c0,.57-.26.86-.78.86H211.1c-.28,0-.45-.08-.52-.23a1.46,1.46,0,0,1-.11-.6V348.4a1,1,0,0,1,.12-.53c.08-.14.25-.2.51-.2h12.61a11.45,11.45,0,0,1-.66-2.21c-.16-.81-.3-1.62-.42-2.44s-.27-1.66-.46-2.47a8.08,8.08,0,0,0-.82-2.14,4.34,4.34,0,0,0-1.45-1.5,4.6,4.6,0,0,0-2.41-.56,9.29,9.29,0,0,0-3.4.76c-.1-.31-.19-.62-.26-.93s-.14-.62-.22-.92a9,9,0,0,1,1-.4,10.89,10.89,0,0,1,1.14-.37,10.58,10.58,0,0,1,1.27-.26,8.19,8.19,0,0,1,1.29-.1,7.39,7.39,0,0,1,4,.93,6.59,6.59,0,0,1,2.3,2.42,11.57,11.57,0,0,1,1.18,3.37c.24,1.25.42,2.5.56,3.76q.09.79.18,1.56t.24,1.5Zm-13-17.82a2,2,0,0,1,.49-1.37,1.59,1.59,0,0,1,1.24-.56,1.56,1.56,0,0,1,1.21.56,2.15,2.15,0,0,1,0,2.73,1.56,1.56,0,0,1-1.21.56,1.59,1.59,0,0,1-1.24-.56A2,2,0,0,1,216.72,329.85Z" transform="translate(-0.12)"/><path class="cls-2" d="M229.11,350.32c-.28,0-.45-.08-.52-.23a1.46,1.46,0,0,1-.11-.6V348.4a1,1,0,0,1,.12-.53c.08-.14.25-.2.51-.2h2.51a1.3,1.3,0,0,0,1.21-.48,4,4,0,0,0,.28-1.81V324.17h3.35v19.22a9.46,9.46,0,0,0,.13,1.61,4.2,4.2,0,0,0,.48,1.37,2.6,2.6,0,0,0,.91.95,2.67,2.67,0,0,0,1.4.35h1.41a.73.73,0,0,1,.61.2,1,1,0,0,1,.17.63v1c0,.57-.26.86-.78.86h-.6a3.2,3.2,0,0,1-2.54-1.11,5.73,5.73,0,0,1-1.25-2.8A6.6,6.6,0,0,1,236,348a3.45,3.45,0,0,1-.76,1.24,3.25,3.25,0,0,1-1.26.8,5.42,5.42,0,0,1-1.89.28Z" transform="translate(-0.12)"/><path class="cls-2" d="M240.22,350.32c-.28,0-.45-.08-.52-.23a1.46,1.46,0,0,1-.11-.6V348.4a1,1,0,0,1,.12-.53c.08-.14.25-.2.51-.2h4.06v-23.5h3.38v26.15Z" transform="translate(-0.12)"/></g><path class="cls-4" d="M34.83,265.42c.45,3.31.82,6.68,1.13,10.11s.45,6.81.45,10.11a127.76,127.76,0,0,1-.91,14.06H4.08a37.51,37.51,0,0,1-2.44-7.18,30.9,30.9,0,0,1-.87-7,20.37,20.37,0,0,1,1.62-8.27,19.17,19.17,0,0,1,10.75-10.37,20.76,20.76,0,0,1,7.63-1.43ZM8,248.81a5.51,5.51,0,0,1,5.56-5.56,5.61,5.61,0,0,1,4,9.54,5.39,5.39,0,0,1-4,1.66,5.27,5.27,0,0,1-3.94-1.66A5.48,5.48,0,0,1,8,248.81Zm16.09,42.7a65.21,65.21,0,0,0,.45-7.6c0-1.8-.07-3.55-.19-5.26s-.31-3.35-.56-5H20.17a6.52,6.52,0,0,0-2.37.53A7.08,7.08,0,0,0,15.32,276a9.41,9.41,0,0,0-2,3.19,13.35,13.35,0,0,0-.79,4.92,23.58,23.58,0,0,0,.3,3.8A14.33,14.33,0,0,0,14,291.51Zm-2.33-42.7a5.42,5.42,0,0,1,1.58-3.95,5.31,5.31,0,0,1,4-1.61,5.45,5.45,0,0,1,4,1.61A5.38,5.38,0,0,1,33,248.81a5.48,5.48,0,0,1-1.62,4,5.38,5.38,0,0,1-4,1.66,5.25,5.25,0,0,1-4-1.66A5.53,5.53,0,0,1,21.75,248.81Z" transform="translate(-0.12)"/><path class="cls-4" d="M85.19,299.7a7.08,7.08,0,0,1-3.42-.79,7.84,7.84,0,0,1-2.44-2,10.08,10.08,0,0,1-1.54-2.59,14,14,0,0,1-.79-2.52,10.27,10.27,0,0,1-1.66,4.09,8.45,8.45,0,0,1-2.63,2.41,9.23,9.23,0,0,1-3.3,1.13,26.49,26.49,0,0,1-3.69.26H44.45v-8.19H61.66a3.82,3.82,0,0,0,3.12-1.06c.58-.7.87-2.07.87-4.13v-3.91a34.28,34.28,0,0,0-.34-5.07,12.51,12.51,0,0,0-1.17-3.91,6,6,0,0,0-2.33-2.52,7.52,7.52,0,0,0-3.91-.9H48.51v-7.75h11.2a22.25,22.25,0,0,1,8.53,1.43,13.93,13.93,0,0,1,5.49,3.95,15.43,15.43,0,0,1,3,5.9,28.62,28.62,0,0,1,.9,7.37,45.93,45.93,0,0,0,.23,5,9.45,9.45,0,0,0,.86,3.27,4,4,0,0,0,1.77,1.8,6.5,6.5,0,0,0,2.93.57h3.83a2.75,2.75,0,0,1,2,.52,2.48,2.48,0,0,1,.49,1.73v3.54a2,2,0,0,1-2.48,2.4Z" transform="translate(-0.12)"/><path class="cls-4" d="M85.19,299.7a2.38,2.38,0,0,1-2-.6,3,3,0,0,1-.45-1.8v-3.61a2.39,2.39,0,0,1,.49-1.62,2.46,2.46,0,0,1,1.91-.56h7.52c1.75,0,2.88-.42,3.38-1.24a9.62,9.62,0,0,0,.75-4.55v-20.3h12v18.12c0,2.81.52,4.84,1.58,6.09s2.8,1.88,5.26,1.88h3.76a2.92,2.92,0,0,1,2,.52,2.39,2.39,0,0,1,.52,1.73v3.54a2.66,2.66,0,0,1-.52,1.84,2.8,2.8,0,0,1-2,.56h-2.48a5.79,5.79,0,0,1-1.06-.07,7.27,7.27,0,0,1-5.22-2.56,10.93,10.93,0,0,1-2.52-5.26q-1.35,7.89-10.52,7.89Zm4.66,10.37a5.59,5.59,0,0,1,9.51-3.87,5.28,5.28,0,0,1,1.62,3.87,5.47,5.47,0,0,1-1.62,4,5.69,5.69,0,0,1-7.93,0A5.55,5.55,0,0,1,89.85,310.07Zm13.69,0a5.27,5.27,0,0,1,1.61-3.87,5.39,5.39,0,0,1,3.95-1.61,5.49,5.49,0,0,1,4,1.61,5.28,5.28,0,0,1,1.62,3.87,5.52,5.52,0,0,1-5.64,5.64,5.39,5.39,0,0,1-3.95-1.61A5.46,5.46,0,0,1,103.54,310.07Z" transform="translate(-0.12)"/><path class="cls-4" d="M117.59,299.7a2.38,2.38,0,0,1-2-.6,3,3,0,0,1-.45-1.8v-3.61a2.45,2.45,0,0,1,.48-1.62,2.5,2.5,0,0,1,1.92-.56h24.73v-11.2a16.59,16.59,0,0,0-.45-3.95,9.23,9.23,0,0,0-1.43-3.23,6.78,6.78,0,0,0-2.51-2.18,8,8,0,0,0-3.72-.79H123.08v-6.09q4.07-6.54,8.12-13t8.19-13l4.55,3,4.62,3.12q-2.92,4.51-5.78,9.06T137,262.41a33.54,33.54,0,0,1,6.95,1.13,13.9,13.9,0,0,1,5.53,3,13.54,13.54,0,0,1,3.6,5.41,23.76,23.76,0,0,1,1.28,8.46V299.7Z" transform="translate(-0.12)"/><path class="cls-4" d="M181,296.62a32,32,0,0,1-1.09,8.94,17,17,0,0,1-3,6,11.41,11.41,0,0,1-4.47,3.38,14.14,14.14,0,0,1-5.42,1.05,22.18,22.18,0,0,1-5.41-.71,34.94,34.94,0,0,1-5.71-2l1.13-4.66a20,20,0,0,0,4.21.45,9.79,9.79,0,0,0,3.38-.53,5.17,5.17,0,0,0,2.4-1.84,9.22,9.22,0,0,0,1.47-3.61,28.38,28.38,0,0,0,.49-5.82V265.42h12Z" transform="translate(-0.12)"/><path class="cls-4" d="M224.79,265.42v29.85a42.72,42.72,0,0,1-.45,6.46,18,18,0,0,1-2.3,6.95,14.63,14.63,0,0,1-4,4.4,14.17,14.17,0,0,1-5.07,2.29,23.44,23.44,0,0,1-5.38.64,30,30,0,0,1-6.35-.67,25.49,25.49,0,0,1-5.37-1.73l1.12-4.74a27.1,27.1,0,0,0,5.57.6,20.21,20.21,0,0,0,4-.37,7.27,7.27,0,0,0,3.19-1.47,7.42,7.42,0,0,0,2.15-3,14,14,0,0,0,.86-5H192.69a57.07,57.07,0,0,1-2.56-7.14,25.78,25.78,0,0,1-1-7.07,19.71,19.71,0,0,1,6-14.58,19.35,19.35,0,0,1,6.39-4.06,20.8,20.8,0,0,1,7.63-1.43Zm-12,26.09V273.69h-4.2a6.44,6.44,0,0,0-2.37.53,7,7,0,0,0-2.48,1.73,9.58,9.58,0,0,0-2,3.19,13.56,13.56,0,0,0-.79,4.92,26.15,26.15,0,0,0,.27,3.8,12.82,12.82,0,0,0,1.09,3.65Z" transform="translate(-0.12)"/><path class="cls-4" d="M229.82,232.72v-5.94h4.81v-4.73a11.89,11.89,0,0,1,.87-5,7.37,7.37,0,0,1,2.29-2.94,8.33,8.33,0,0,1,3.27-1.43,19,19,0,0,1,3.8-.37h5.49v6.46h-4.59a4.69,4.69,0,0,0-2.78.76,3.2,3.2,0,0,0-1,2.78v4.43h8.79v5.94Zm6.92,7.74h11.95V299.7H236.74Z" transform="translate(-0.12)"/></g></g></svg>