<?xml version="1.0" encoding="UTF-8"?>
<svg version="1.1" xmlns="http://www.w3.org/2000/svg" width="430" height="443">
<path d="M0 0 C1.11084961 0.30647461 1.11084961 0.30647461 2.24414062 0.61914062 C27.26118988 7.6867375 50.74121938 20.8528805 71 37 C72.50046875 38.19302734 72.50046875 38.19302734 74.03125 39.41015625 C89.31793037 51.82804821 102.64010085 65.92489033 114 82 C114.44923828 82.63115723 114.89847656 83.26231445 115.36132812 83.91259766 C126.37679013 99.52057158 135.22213322 116.14429132 142 134 C142.31066406 134.81807129 142.62132812 135.63614258 142.94140625 136.47900391 C150.06046002 155.6133226 154.09743298 175.6912032 156 196 C156.11085938 197.14210937 156.22171875 198.28421875 156.3359375 199.4609375 C159.00920271 232.1903737 156.1081574 265.00373668 145 296 C144.5671167 297.21187988 144.5671167 297.21187988 144.12548828 298.44824219 C136.96884654 318.11836296 127.21272681 335.76600555 114 352 C113.5035498 352.61601074 113.00709961 353.23202148 112.49560547 353.86669922 C97.43383776 372.43029114 79.27556029 387.09550598 58 398 C57.00129883 398.51771973 57.00129883 398.51771973 55.98242188 399.04589844 C12.06473941 421.55423907 -40.19040787 424.98515648 -87.13378906 410.26831055 C-97.94796336 406.73447155 -108.08781806 402.57311435 -118 397 C-118.61601074 396.66419922 -119.23202148 396.32839844 -119.86669922 395.98242188 C-130.5443793 390.13452642 -139.74937534 382.87407568 -149 375 C-149.83789062 374.30519531 -150.67578125 373.61039062 -151.5390625 372.89453125 C-156.18493824 368.97513415 -160.14755496 364.69442272 -164 360 C-164.73863281 359.14535156 -165.47726563 358.29070312 -166.23828125 357.41015625 C-192.17156829 325.93450803 -200.91931919 282.33766931 -197.79785156 242.41455078 C-197.2353924 237.51478859 -196.21749276 232.77467925 -195 228 C-194.72591309 226.87198975 -194.72591309 226.87198975 -194.44628906 225.72119141 C-185.3798701 189.299198 -163.15406324 154.96494122 -131 135 C-110.8891893 123.02651155 -90.29251988 115.55863154 -66.6875 115.6875 C-65.59518066 115.69313965 -64.50286133 115.6987793 -63.37744141 115.70458984 C-37.99372626 116.08446171 -17.24094245 126.23910173 1 143.625 C11.94066256 154.92465305 20.99072164 169.00814839 26 184 C25.67 184.66 25.34 185.32 25 186 C24.40574219 185.05640625 23.81148437 184.1128125 23.19921875 183.140625 C8.48701502 160.17948644 -10.97707806 144.05450276 -38 138 C-61.38865284 132.97602232 -85.73787967 138.71567728 -105.91796875 150.85546875 C-111.83136009 154.97010987 -116.9158894 159.91938124 -122 165 C-122.7528125 165.72960937 -123.505625 166.45921875 -124.28125 167.2109375 C-134.63299323 177.93238584 -140.43253419 191.74512609 -144 206 C-144.24492187 206.96808594 -144.48984375 207.93617188 -144.7421875 208.93359375 C-150.5385165 236.92271664 -142.56174191 266.02405065 -128 290 C-125.52474396 293.52417643 -122.84455127 296.77002289 -120 300 C-119.32453125 300.81855469 -118.6490625 301.63710938 -117.953125 302.48046875 C-101.41106759 321.95059106 -78.73707397 331.56716594 -54 336 C-53.26007813 336.13277344 -52.52015625 336.26554687 -51.7578125 336.40234375 C-21.57684251 340.6887461 10.61160304 332.50026252 35.1875 314.6875 C37.14331303 313.14798452 39.08088068 311.58502162 41 310 C41.98613281 309.19046875 42.97226562 308.3809375 43.98828125 307.546875 C71.24445283 283.93192997 85.09279485 247.90366454 87.7578125 212.54296875 C90.2422323 170.57078175 79.23889914 128.57375591 51.015625 96.5546875 C48.5223617 93.79546553 45.96959318 91.0983369 43.38134766 88.42822266 C42.15112328 87.15625154 40.93943172 85.86641497 39.73046875 84.57421875 C24.40830527 68.56980681 4.56289714 56.16199178 -15 46 C-15.82000488 45.57364258 -16.64000977 45.14728516 -17.48486328 44.70800781 C-55.05288416 25.43488464 -95.60585204 15.75569312 -137 9 C-133.58590183 5.17626351 -129.58004755 4.18433191 -124.8125 2.625 C-123.88703369 2.32118408 -122.96156738 2.01736816 -122.00805664 1.7043457 C-82.28976298 -10.89573459 -40.06593136 -11.32084056 0 0 Z " fill="#FFFFFF" transform="translate(273,8)"/>
<path d="M0 0 C1.55770614 0.2956826 3.11565785 0.5900739 4.67382812 0.88330078 C9.87889152 1.88238522 15.06498904 2.96464976 20.25 4.0625 C21.18320068 4.25908203 22.11640137 4.45566406 23.07788086 4.65820312 C46.64198501 9.63972162 70.03844217 15.17374665 92.9375 22.6875 C93.99066406 23.03167969 95.04382813 23.37585938 96.12890625 23.73046875 C103.41844883 26.21682436 110.19148739 29.40882114 117 33 C113.69838428 34.10053857 111.86780319 33.92476148 108.4375 33.5625 C64.96898863 29.00205857 19.48331621 45.52247676 -14.04003906 72.65087891 C-25.52000055 82.15677294 -35.7444402 92.29720744 -45 104 C-45.78117187 104.94101563 -46.56234375 105.88203125 -47.3671875 106.8515625 C-77.78357793 144.45904844 -90.07086289 195.27785934 -85.49609375 242.9296875 C-81.65134679 276.40211897 -70.25050485 309.81863403 -50 337 C-49.59990723 337.53850586 -49.19981445 338.07701172 -48.78759766 338.63183594 C-25.5864401 369.61902645 3.26163699 390.34199758 38 407 C33.3163997 408.5612001 29.76217246 406.47139838 25.25 404.8125 C24.28078613 404.45736328 23.31157227 404.10222656 22.31298828 403.73632812 C6.71492908 397.8128242 -8.56482146 389.93968877 -22 380 C-22.52207031 379.61634277 -23.04414062 379.23268555 -23.58203125 378.83740234 C-31.09396831 373.28921229 -38.13355999 367.33139273 -45 361 C-45.8559375 360.2471875 -46.711875 359.494375 -47.59375 358.71875 C-52.83879814 354.10563537 -57.57992775 349.40426328 -62 344 C-62.43038574 343.48195801 -62.86077148 342.96391602 -63.30419922 342.43017578 C-103.68599242 293.73408178 -122.52262996 232.32389022 -117.3125 169.25 C-114.44616364 139.65765761 -106.14153479 111.63948917 -93 85 C-92.63938477 84.26104492 -92.27876953 83.52208984 -91.90722656 82.76074219 C-84.42145572 67.56725042 -75.08423671 53.81112866 -64 41 C-62.99453125 39.82824219 -62.99453125 39.82824219 -61.96875 38.6328125 C-59.69189459 36.04161511 -57.36218889 33.51379206 -55 31 C-54.21544434 30.1644458 -54.21544434 30.1644458 -53.41503906 29.31201172 C-44.65307881 20.05995886 -35.42438826 11.69535054 -24.95361328 4.39746094 C-22.98338866 3.03792833 -22.98338866 3.03792833 -21.24560547 1.45410156 C-14.67083503 -3.79366724 -7.6041297 -1.54531324 0 0 Z " fill="#F6C100" transform="translate(118,35)"/>
</svg>
