<?xml version="1.0" encoding="UTF-8"?>
<svg version="1.1" xmlns="http://www.w3.org/2000/svg" width="121" height="174">
<path d="M0 0 C10.64634234 8.2289022 17.59181093 17.29201745 22 30 C22.2475 30.70382813 22.495 31.40765625 22.75 32.1328125 C26.45971313 45.27137985 25.03033089 61.74634318 18.5390625 73.6875 C17.11676346 75.88231679 15.61123612 77.94169012 14 80 C13.4225 80.86625 12.845 81.7325 12.25 82.625 C3.81475483 91.5288699 -6.58749261 96.02487863 -18.75390625 96.41967773 C-31.64888825 96.51660254 -42.43837324 93.80546408 -52.265625 84.9609375 C-58.4229212 78.50717889 -62.25232046 70.97215446 -63 62 C-63.06316406 61.28585938 -63.12632813 60.57171875 -63.19140625 59.8359375 C-63.66385144 50.23463201 -60.78832721 41.15517136 -54.62109375 33.7421875 C-47.86878096 26.48548508 -40.6520231 21.96804358 -30.5 21.4375 C-23.663694 21.73725316 -17.92572781 24.05048578 -13.078125 28.9375 C-10.32197492 32.40237438 -8.28388325 35.45786793 -8 40 C-12 36 -12 36 -13.875 33.9375 C-19.15383447 29.12444504 -24.07029297 28.39627812 -31.02734375 28.5859375 C-36.90872892 29.40515804 -40.88145331 32.58744336 -44.875 36.8125 C-48.71224411 42.56836617 -49.54983947 47.94875706 -48.5390625 54.765625 C-46.86913219 61.68736514 -43.23906384 67.17395744 -37.265625 71.15625 C-30.34062317 75.29941349 -23.28252237 76.32063059 -15.40625 74.3515625 C-6.88107049 71.27302545 -0.98406821 66.68399772 2.9375 58.4375 C4.48535677 54.61979958 5.73011042 51.13830693 6 47 C6.061875 46.37222656 6.12375 45.74445312 6.1875 45.09765625 C6.72963802 35.72883352 3.75576311 25.9298147 -2.3359375 18.7578125 C-2.88507813 18.17773438 -3.43421875 17.59765625 -4 17 C-4.52851562 16.41992188 -5.05703125 15.83984375 -5.6015625 15.2421875 C-17.01718297 4.02772334 -32.86894273 0.22465155 -48 -3 C-47 -5 -47 -5 -44.734375 -5.8515625 C-29.25850653 -9.86232422 -13.69868828 -8.8109963 0 0 Z " fill="#675795" transform="translate(89,8)"/>
<path d="M0 0 C9.15900282 1.91219988 18.69227444 3.93669011 27.29296875 7.6875 C27.29296875 8.0175 27.29296875 8.3475 27.29296875 8.6875 C26.33777344 8.78546875 25.38257813 8.8834375 24.3984375 8.984375 C9.55166197 10.70144974 -2.56030779 14.52106222 -12.296875 26.6171875 C-20.5830279 38.78245353 -22.94392951 50.22113608 -20.70703125 64.6875 C-17.32686118 78.24320797 -9.09962075 87.95919368 2.29296875 95.6875 C4.26401788 96.74341918 6.25385027 97.76989669 8.29296875 98.6875 C5.82891244 99.5819862 4.5958753 99.78474895 2.06640625 98.97265625 C-13.26520115 91.15703228 -23.23295709 80.10972249 -28.70703125 63.6875 C-33.57740577 47.44441848 -30.42583641 31.75487259 -22.73828125 17.03125 C-17.66739691 8.68379424 -10.52818512 -1.52905563 0 0 Z " fill="#F6C014" transform="translate(38.70703125,8.3125)"/>
<path d="M0 0 C2.475 1.485 2.475 1.485 5 3 C3.87548273 5.9719385 2.77706209 8.33440687 1 11 C1.969375 11.598125 2.93875 12.19625 3.9375 12.8125 C7 15 7 15 8 18 C8.06937062 20.22818441 8.08457084 22.45834524 8.0625 24.6875 C8.05347656 25.86699219 8.04445312 27.04648438 8.03515625 28.26171875 C8.02355469 29.16535156 8.01195312 30.06898438 8 31 C4.91674642 31.0582253 1.83363495 31.09367134 -1.25 31.125 C-2.55904297 31.15013672 -2.55904297 31.15013672 -3.89453125 31.17578125 C-4.73886719 31.18222656 -5.58320312 31.18867188 -6.453125 31.1953125 C-7.22817383 31.20578613 -8.00322266 31.21625977 -8.80175781 31.22705078 C-11.25650599 30.97350616 -12.82290097 30.11063434 -15 29 C-16.34246312 29.64808564 -17.67432801 30.31822584 -19 31 C-25.33333333 31.44444444 -25.33333333 31.44444444 -29 29 C-30.68180544 29.62749716 -32.34697977 30.30018122 -34 31 C-36.89453125 31.1953125 -36.89453125 31.1953125 -39.8125 31.125 C-41.27623047 31.09792969 -41.27623047 31.09792969 -42.76953125 31.0703125 C-43.50558594 31.04710937 -44.24164063 31.02390625 -45 31 C-45 29.35 -45 27.7 -45 26 C-41.7 25.67 -38.4 25.34 -35 25 C-35.33 22.36 -35.66 19.72 -36 17 C-38.31 17 -40.62 17 -43 17 C-43 15.35 -43 13.7 -43 12 C-34.06729914 11.38630299 -34.06729914 11.38630299 -30.5 13.4375 C-28.35797244 17.09679709 -27.67474996 20.84496078 -27 25 C-25.33388095 25.042721 -23.66617115 25.04063832 -22 25 C-20.26043342 23.26043342 -20.62809614 20.8063378 -20.4375 18.4375 C-20.35371094 17.42558594 -20.26992188 16.41367188 -20.18359375 15.37109375 C-20.09271484 14.19740234 -20.09271484 14.19740234 -20 13 C-18.02 13 -16.04 13 -14 13 C-13.93941406 13.78246094 -13.87882812 14.56492187 -13.81640625 15.37109375 C-13.69072266 16.88896484 -13.69072266 16.88896484 -13.5625 18.4375 C-13.44068359 19.95150391 -13.44068359 19.95150391 -13.31640625 21.49609375 C-13.26788532 23.93640779 -13.26788532 23.93640779 -12 25 C-9.81707226 25.23481693 -7.62796826 25.41363323 -5.4375 25.5625 C-4.23996094 25.64628906 -3.04242188 25.73007813 -1.80859375 25.81640625 C-0.41833984 25.90728516 -0.41833984 25.90728516 1 26 C0.505 21.545 0.505 21.545 0 17 C-2.64 17 -5.28 17 -8 17 C-7.84482717 9.86204983 -4.25790537 5.52527146 0 0 Z " fill="#685795" transform="translate(66,112)"/>
<path d="M0 0 C0.08115993 3.06303578 0.14057409 6.12390815 0.1875 9.1875 C0.21263672 10.05181641 0.23777344 10.91613281 0.26367188 11.80664062 C0.3197835 16.68835222 0.25490183 20.067322 -3 24 C-5.24512262 25.12256131 -6.51456649 25.13413762 -9 25.125 C-10.051875 25.12886719 -10.051875 25.12886719 -11.125 25.1328125 C-13 25 -13 25 -15 24 C-14.67 23.01 -14.34 22.02 -14 21 C-10.9375 19.8125 -10.9375 19.8125 -8 19 C-9.27875 18.9175 -10.5575 18.835 -11.875 18.75 C-15.77882535 18.23960587 -15.77882535 18.23960587 -17.5 16.375 C-18.43035342 11.95582124 -18.58788857 8.39236766 -16.8125 4.1875 C-12.39504072 -1.14391637 -6.37746757 -0.22290178 0 0 Z M-9 5 C-11.34973818 6.89755144 -11.34973818 6.89755144 -11.125 10.125 C-11.08375 11.07375 -11.0425 12.0225 -11 13 C-9.68 13 -8.36 13 -7 13 C-7 10.36 -7 7.72 -7 5 C-7.66 5 -8.32 5 -9 5 Z " fill="#7765A7" transform="translate(107,125)"/>
<path d="M0 0 C1.59273144 3.18546289 1.10141833 6.63199348 1.0625 10.125 C1.041875 12.72375 1.02125 15.3225 1 18 C-4.28 18 -9.56 18 -15 18 C-17.15019919 13.69960163 -17.41332248 11.71187627 -17 7 C-15.69600069 3.91158059 -14.72611897 2.44848524 -11.875 0.6875 C-7.89438965 -0.26438508 -4.07210862 -0.15969053 0 0 Z M-8 5 C-10.34973818 6.89755144 -10.34973818 6.89755144 -10.125 10.125 C-10.08375 11.07375 -10.0425 12.0225 -10 13 C-8.68 13 -7.36 13 -6 13 C-6 10.36 -6 7.72 -6 5 C-6.66 5 -7.32 5 -8 5 Z " fill="#5A4C88" transform="translate(17,125)"/>
<path d="M0 0 C1.98 0 3.96 0 6 0 C6 9.57 6 19.14 6 29 C4.02 29 2.04 29 0 29 C0 19.43 0 9.86 0 0 Z " fill="#7C69AD" transform="translate(112,114)"/>
<path d="M0 0 C1.98 0 3.96 0 6 0 C6.11632513 3.41637953 6.18728897 6.83224897 6.25 10.25 C6.30027344 11.70212891 6.30027344 11.70212891 6.3515625 13.18359375 C6.45018289 20.33357205 6.45018289 20.33357205 4.2109375 23.6484375 C1.03414088 25.59043685 -1.35768534 25.40470163 -5 25 C-5.66 24.34 -6.32 23.68 -7 23 C-6.67 22.34 -6.34 21.68 -6 21 C-5.34 20.855625 -4.68 20.71125 -4 20.5625 C-3.34 20.376875 -2.68 20.19125 -2 20 C-1.13580777 17.40742331 -0.82419068 15.65962293 -0.68359375 12.98828125 C-0.64169922 12.23095703 -0.59980469 11.47363281 -0.55664062 10.69335938 C-0.51732422 9.90767578 -0.47800781 9.12199219 -0.4375 8.3125 C-0.37272461 7.11657227 -0.37272461 7.11657227 -0.30664062 5.89648438 C-0.20072632 3.93118553 -0.09987449 1.96561504 0 0 Z " fill="#7160A0" transform="translate(80,125)"/>
<path d="M0 0 C1.4540625 0.0309375 1.4540625 0.0309375 2.9375 0.0625 C2.9375 2.0425 2.9375 4.0225 2.9375 6.0625 C4.9175 6.0625 6.8975 6.0625 8.9375 6.0625 C8.9375 4.0825 8.9375 2.1025 8.9375 0.0625 C9.9275 0.0625 10.9175 0.0625 11.9375 0.0625 C11.9375 2.0425 11.9375 4.0225 11.9375 6.0625 C12.5975 6.0625 13.2575 6.0625 13.9375 6.0625 C13.9375 4.0825 13.9375 2.1025 13.9375 0.0625 C16.3125 -0.0625 16.3125 -0.0625 18.9375 0.0625 C20.9375 2.0625 20.9375 2.0625 20.9375 6.0625 C21.9275 4.0825 22.9175 2.1025 23.9375 0.0625 C25.5875 0.0625 27.2375 0.0625 28.9375 0.0625 C29.31883299 2.0539056 29.65075582 4.05529077 29.9375 6.0625 C28.9375 7.0625 28.9375 7.0625 25.79467773 7.17602539 C24.40347303 7.17586633 23.01226239 7.17017506 21.62109375 7.16015625 C20.89003922 7.1587413 20.15898468 7.15732635 19.40577698 7.15586853 C17.06214368 7.15025408 14.71860461 7.13769922 12.375 7.125 C10.78971492 7.11998686 9.20442834 7.11542363 7.61914062 7.11132812 C3.7252239 7.10027997 -0.16862205 7.08300572 -4.0625 7.0625 C-4.10504356 5.06295254 -4.10330783 3.06208364 -4.0625 1.0625 C-3.0625 0.0625 -3.0625 0.0625 0 0 Z M-1.0625 1.0625 C-1.3925 2.3825 -1.7225 3.7025 -2.0625 5.0625 C-1.0725 5.5575 -1.0725 5.5575 -0.0625 6.0625 C-0.0625 4.4125 -0.0625 2.7625 -0.0625 1.0625 C-0.3925 1.0625 -0.7225 1.0625 -1.0625 1.0625 Z M25.9375 1.0625 C25.6075 2.7125 25.2775 4.3625 24.9375 6.0625 C25.5975 6.0625 26.2575 6.0625 26.9375 6.0625 C26.9375 4.4125 26.9375 2.7625 26.9375 1.0625 C26.6075 1.0625 26.2775 1.0625 25.9375 1.0625 Z M16.9375 2.0625 C17.9375 6.0625 17.9375 6.0625 17.9375 6.0625 Z " fill="#F6C014" transform="translate(4.0625,158.9375)"/>
<path d="M0 0 C0.66 0 1.32 0 2 0 C2.04898438 0.78246094 2.09796875 1.56492188 2.1484375 2.37109375 C2.22320312 3.38300781 2.29796875 4.39492187 2.375 5.4375 C2.44460937 6.44683594 2.51421875 7.45617187 2.5859375 8.49609375 C2.72257812 9.32238281 2.85921875 10.14867187 3 11 C3.66 11.33 4.32 11.66 5 12 C5 8.04 5 4.08 5 0 C5.99 0 6.98 0 8 0 C8 4.29 8 8.58 8 13 C-0.58 13 -9.16 13 -18 13 C-16.68 12.67 -15.36 12.34 -14 12 C-14.57452746 8.06924356 -14.57452746 8.06924356 -17 5 C-15.35 5 -13.7 5 -12 5 C-11.67 7.31 -11.34 9.62 -11 12 C-9.02 12 -7.04 12 -5 12 C-5.78130071 9.50447516 -5.78130071 9.50447516 -7 7 C-7.99 6.67 -8.98 6.34 -10 6 C-10 5.67 -10 5.34 -10 5 C-8.02 5 -6.04 5 -4 5 C-3.34 7.31 -2.68 9.62 -2 12 C-1.34 12 -0.68 12 0 12 C0 8.04 0 4.08 0 0 Z " fill="#F6C014" transform="translate(110,153)"/>
<path d="M0 0 C0.99 0 1.98 0 3 0 C3 3.96 3 7.92 3 12 C5.97 12 8.94 12 12 12 C12 10.02 12 8.04 12 6 C13.99954746 5.95745644 16.00041636 5.95919217 18 6 C19 7 19 7 19 13 C12.73 13 6.46 13 0 13 C0 8.71 0 4.42 0 0 Z M15 7 C15 8.65 15 10.3 15 12 C15.66 11.67 16.32 11.34 17 11 C16.34 9.68 15.68 8.36 15 7 Z " fill="#F6C014" transform="translate(71,153)"/>
<path d="M0 0 C0 1.32 0 2.64 0 4 C-0.99 4.33 -1.98 4.66 -3 5 C-3.33 5.66 -3.66 6.32 -4 7 C-2.68 7 -1.36 7 0 7 C0 8.32 0 9.64 0 11 C-3.63 11 -7.26 11 -11 11 C-11 9.68 -11 8.36 -11 7 C-10.01 7 -9.02 7 -8 7 C-8.061875 6.21625 -8.12375 5.4325 -8.1875 4.625 C-8.125625 3.75875 -8.06375 2.8925 -8 2 C-4.77208445 -0.1519437 -3.71599191 -0.20086443 0 0 Z " fill="#7C69AD" transform="translate(119,100)"/>
<path d="M0 0 C0.99 0 1.98 0 3 0 C3 4.29 3 8.58 3 13 C1.02 13 -0.96 13 -3 13 C-3.33 14.32 -3.66 15.64 -4 17 C-5.32 16.67 -6.64 16.34 -8 16 C-7.34 16 -6.68 16 -6 16 C-5.67 12.7 -5.34 9.4 -5 6 C-4.34 6 -3.68 6 -3 6 C-2.87625 6.804375 -2.7525 7.60875 -2.625 8.4375 C-2.315625 9.7059375 -2.315625 9.7059375 -2 11 C-1.34 11.33 -0.68 11.66 0 12 C0 8.04 0 4.08 0 0 Z " fill="#F6C014" transform="translate(42,153)"/>
<path d="M0 0 C0.721875 0.185625 1.44375 0.37125 2.1875 0.5625 C5.12826973 1.01995307 7.14103058 0.73516357 10 0 C10.33 1.65 10.66 3.3 11 5 C6.51536154 5.94413441 3.48463846 5.94413441 -1 5 C-0.67 3.35 -0.34 1.7 0 0 Z " fill="#5A4C88" transform="translate(5,115)"/>
<path d="M0 0 C0.99 0 1.98 0 3 0 C3 2.31 3 4.62 3 7 C-0.96 7 -4.92 7 -9 7 C-9 5.02 -9 3.04 -9 1 C-8.34 1 -7.68 1 -7 1 C-6.67 2.32 -6.34 3.64 -6 5 C-3.03 5.495 -3.03 5.495 0 6 C0 4.02 0 2.04 0 0 Z " fill="#F6C014" transform="translate(66,159)"/>
<path d="M0 0 C0.99 0 1.98 0 3 0 C3 4.29 3 8.58 3 13 C2.01 13 1.02 13 0 13 C0 8.71 0 4.42 0 0 Z " fill="#F6C014" transform="translate(47,153)"/>
<path d="M0 0 C1.65 0.33 3.3 0.66 5 1 C4.67 2.65 4.34 4.3 4 6 C2.35 5.67 0.7 5.34 -1 5 C-0.67 3.35 -0.34 1.7 0 0 Z " fill="#685795" transform="translate(50,144)"/>
<path d="M0 0 C1.65 0.33 3.3 0.66 5 1 C4.67 2.65 4.34 4.3 4 6 C2.68 6 1.36 6 0 6 C-1.125 2.25 -1.125 2.25 0 0 Z " fill="#665693" transform="translate(43,144)"/>
<path d="M0 0 C1.65 0 3.3 0 5 0 C5 0.66 5 1.32 5 2 C3.35 2 1.7 2 0 2 C0 1.34 0 0.68 0 0 Z " fill="#F6C014" transform="translate(12,167)"/>
<path d="M0 0 C1.65 0 3.3 0 5 0 C5 0.66 5 1.32 5 2 C3.35 2 1.7 2 0 2 C0 1.34 0 0.68 0 0 Z " fill="#F6C014" transform="translate(61,156)"/>
<path d="M0 0 C1.65 0 3.3 0 5 0 C5 0.66 5 1.32 5 2 C3.35 2 1.7 2 0 2 C0 1.34 0 0.68 0 0 Z " fill="#F6C014" transform="translate(28,155)"/>
<path d="M0 0 C1.65 0 3.3 0 5 0 C5 0.66 5 1.32 5 2 C3.35 2 1.7 2 0 2 C0 1.34 0 0.68 0 0 Z " fill="#F6C014" transform="translate(1,155)"/>
<path d="M0 0 C0.99 0 1.98 0 3 0 C3 0.66 3 1.32 3 2 C2.01 2 1.02 2 0 2 C0 1.34 0 0.68 0 0 Z " fill="#F6C014" transform="translate(102,155)"/>
</svg>
